<svg xmlns="http://www.w3.org/2000/svg" viewBox="0 0 1200 675" width="1200" height="675">
  <defs>
    <linearGradient id="grad3" x1="0" x2="1" y1="0" y2="1">
      <stop offset="0" stop-color="#6aa7ff"/>
      <stop offset="1" stop-color="#8b5cf6"/>
    </linearGradient>
  </defs>
  <rect width="1200" height="675" fill="#111821"/>
  <rect x="60" y="60" width="1080" height="555" rx="24" fill="#0e141b" stroke="#1e2a38"/>
  <rect x="100" y="110" width="240" height="36" rx="8" fill="#1e2a38"/>
  <rect x="100" y="170" width="1000" height="420" rx="16" fill="#151e2a" stroke="#1e2a38"/>
  <rect x="120" y="190" width="960" height="60" rx="10" fill="#0e141b" stroke="#1e2a38"/>
  <rect x="140" y="210" width="260" height="24" rx="8" fill="#1e2a38"/>
  <rect x="120" y="270" width="960" height="120" rx="10" fill="#0e141b" stroke="#1e2a38"/>
  <rect x="140" y="290" width="300" height="20" rx="8" fill="#1e2a38"/>
  <rect x="140" y="320" width="220" height="20" rx="8" fill="#1e2a38"/>
  <rect x="120" y="410" width="280" height="40" rx="12" fill="url(#grad3)"/>
  <rect x="420" y="410" width="220" height="40" rx="12" fill="#1e2a38"/>
  <text x="100" y="140" fill="#e6edf3" font-size="28" font-family="Inter, Segoe UI, Arial, sans-serif">Notes App</text>
</svg>