<svg xmlns="http://www.w3.org/2000/svg" viewBox="0 0 1200 675" width="1200" height="675">
  <defs>
    <linearGradient id="grad2" x1="0" x2="1" y1="0" y2="1">
      <stop offset="0" stop-color="#6aa7ff"/>
      <stop offset="1" stop-color="#8b5cf6"/>
    </linearGradient>
  </defs>
  <rect width="1200" height="675" fill="#111821"/>
  <rect x="60" y="60" width="1080" height="555" rx="24" fill="#0e141b" stroke="#1e2a38"/>
  <rect x="100" y="110" width="340" height="36" rx="8" fill="#1e2a38"/>
  <rect x="100" y="170" width="900" height="420" rx="16" fill="#151e2a" stroke="#1e2a38"/>
  <rect x="120" y="190" width="200" height="36" rx="8" fill="url(#grad2)"/>
  <rect x="340" y="190" width="200" height="36" rx="8" fill="#1e2a38"/>
  <rect x="560" y="190" width="200" height="36" rx="8" fill="#1e2a38"/>
  <rect x="120" y="250" width="820" height="2" fill="#1e2a38"/>
  <rect x="120" y="270" width="820" height="14" rx="7" fill="#1e2a38"/>
  <rect x="120" y="300" width="740" height="14" rx="7" fill="#1e2a38"/>
  <rect x="120" y="340" width="280" height="32" rx="10" fill="url(#grad2)"/>
  <rect x="420" y="340" width="160" height="32" rx="10" fill="#1e2a38"/>
  <text x="100" y="140" fill="#e6edf3" font-size="28" font-family="Inter, Segoe UI, Arial, sans-serif">Task Tracker API</text>
</svg>