<svg xmlns="http://www.w3.org/2000/svg" viewBox="0 0 1200 675" width="1200" height="675">
  <defs>
    <linearGradient id="grad" x1="0" x2="1" y1="0" y2="1">
      <stop offset="0" stop-color="#6aa7ff"/>
      <stop offset="1" stop-color="#8b5cf6"/>
    </linearGradient>
  </defs>
  <rect width="1200" height="675" fill="#111821"/>
  <rect x="60" y="60" width="1080" height="555" rx="24" fill="#0e141b" stroke="url(#grad)" stroke-width="2"/>
  <rect x="100" y="110" width="300" height="36" rx="8" fill="#1e2a38"/>
  <rect x="100" y="170" width="760" height="16" rx="8" fill="#1e2a38"/>
  <rect x="100" y="200" width="680" height="16" rx="8" fill="#1e2a38"/>
  <rect x="100" y="260" width="1000" height="280" rx="16" fill="#151e2a" stroke="#1e2a38"/>
  <rect x="120" y="280" width="460" height="240" rx="12" fill="#0e141b" stroke="#1e2a38"/>
  <rect x="600" y="280" width="460" height="60" rx="10" fill="#1e2a38"/>
  <rect x="600" y="360" width="420" height="14" rx="7" fill="#1e2a38"/>
  <rect x="600" y="390" width="360" height="14" rx="7" fill="#1e2a38"/>
  <rect x="600" y="430" width="180" height="36" rx="10" fill="url(#grad)"/>
  <text x="100" y="140" fill="#e6edf3" font-size="28" font-family="Inter, Segoe UI, Arial, sans-serif">Responsive Portfolio</text>
</svg>